<?xml version="1.0" encoding="utf-8"?>
<svg width="1333.0002px" height="1363px" viewBox="0 0 1333.0002 1363" version="1.1" xmlns:xlink="http://www.w3.org/1999/xlink" xmlns="http://www.w3.org/2000/svg">
  <defs>
    <path d="M0 0L541 0L541 786L0 786L0 0Z" id="path_1" />
    <path d="M0 0L535 0L535 782L0 782L0 0Z" id="path_2" />
    <clipPath id="clip_1">
      <use xlink:href="#path_1" clip-rule="evenodd" fill-rule="evenodd" />
    </clipPath>
    <clipPath id="clip_2">
      <use xlink:href="#path_2" clip-rule="evenodd" fill-rule="evenodd" />
    </clipPath>
  </defs>
  <g id="restart">
    <g id="restart">
      <path d="M350 1.68723e-12C156.701 -1.87755e-05 2.5034e-05 156.7 1.1998e-11 350C-5.00679e-05 543.299 156.701 700 350 700C543.299 700 700 543.299 700 350C699.934 156.58 543.179 -0.0666592 349.88 3.12925e-05L350 1.68723e-12L350 1.68723e-12Z" id="circle" fill="#FFA000" fill-rule="evenodd" stroke="none" />
      <path d="M357 166.978C350.564 166.978 344.197 167.267 337.909 167.831L337.909 91.0001L147 242.948L337.909 356.909L337.909 282.837C344.078 281.592 350.462 280.936 357 280.936C409.718 280.936 452.455 323.455 452.455 375.904C452.455 428.352 409.718 470.871 357 470.871C322.65 470.871 292.543 452.816 275.73 425.727C274.11 421.48 271.995 417.476 269.454 413.785C269.136 413.06 268.824 412.333 268.525 411.598L267.973 411.731C257.522 397.906 240.896 388.963 222.169 388.963C190.539 388.963 164.896 414.476 164.896 445.944C164.896 448.402 165.053 450.823 165.356 453.199L162.802 455.554C194.277 531.433 269.368 584.837 357 584.837C472.981 584.837 567 491.294 567 375.904C567 260.518 472.981 166.978 357 166.978L357 166.978Z" id="return" fill="#FFFFFF" stroke="none" />
    </g>
    <g id="sing-box" transform="translate(300 250)">
      <path d="M0.000244141 336L0.000244141 720.69C0.000244141 785.41 39.4993 796.19 39.4993 796.19L456.03 1076.62C520.66 1119.77 502.71 1026.29 502.71 1026.29L502.71 673.96L0.000244141 336L0.000244141 336Z" id="形状" fill="#37474F" fill-rule="evenodd" stroke="none" />
      <g id="遮罩组" transform="translate(492.00024 327)">
        <path d="M0 0L541 0L541 786L0 786L0 0Z" id="矩形" fill="none" fill-rule="evenodd" stroke="none" />
        <g clip-path="url(#clip_1)">
          <g id="Group">
            <g id="遮罩组">
              <path d="M0 0L535 0L535 782L0 782L0 0Z" id="矩形" fill="none" fill-rule="evenodd" stroke="none" />
              <g clip-path="url(#clip_2)">
                <path d="M520.482 15.4819L520.482 400.176C520.482 464.89 480.983 475.676 480.983 475.676C480.983 475.676 129.086 712.963 64.4524 756.106C-0.181708 799.25 17.7722 705.773 17.7722 705.773L17.7722 353.437L520.482 15.4819L520.482 15.4819Z" id="Group" fill="#455A64" fill-rule="evenodd" stroke="none" />
              </g>
            </g>
          </g>
        </g>
      </g>
      <path d="M1006 336L1006 720.69C1006 785.41 966.5 796.19 966.5 796.19C966.5 796.19 614.6 1033.48 549.97 1076.62C485.34 1119.77 503.29 1026.29 503.29 1026.29L503.29 673.96L1006 336L1006 336Z" id="形状" fill="#455A64" fill-rule="evenodd" stroke="none" />
      <path d="M549.71 13.473C520.96 -4.49103 477.85 -4.49103 452.7 13.473L21.5573 308.07C-7.18573 326.04 -7.18573 358.37 21.5573 376.33L452.7 674.53C481.44 692.49 524.56 692.49 549.71 674.53L984.44 372.74C1013.19 354.78 1013.19 322.44 984.44 304.48L549.71 13.473L549.71 13.473Z" id="形状" fill="#546E7A" fill-rule="evenodd" stroke="none" />
      <path d="M503 1094C481.4 1094 467 1080.19 467 1062.92L467 676.08C467 658.82 481.4 645 503 645C524.6 645 539 658.82 539 676.08L539 1059.46C539 1080.19 524.6 1094 503 1094L503 1094Z" id="形状" fill="#546E7A" fill-rule="evenodd" stroke="none" />
      <path d="M861.92 580.92C861.92 616.89 865.5 631.27 826.03 656.45L736.32 713.99C696.85 739.17 682.5 717.59 682.5 685.22L682.5 591.71C682.5 584.52 682.5 580.92 671.73 573.73C578.43 508.99 219.591 260.84 155 214.09L320.07 99C366.72 127.772 707.61 354.35 847.56 451.45C854.74 455.05 858.33 462.24 858.33 465.84L858.33 580.92L861.92 580.92Z" id="形状" fill="#99AAB5" fill-rule="evenodd" stroke="none" />
      <path d="M851.41 455.21C707.82 358.17 366.79 131.752 323.72 103L259.103 142.534L155 214.41C219.615 261.14 578.59 505.53 671.92 570.22C679.1 573.81 679.1 577.41 679.1 581L855 458.8C855 458.8 855 455.21 851.41 455.21L851.41 455.21Z" id="形状" fill="#CCD6DD" fill-rule="evenodd" stroke="none" />
      <path d="M862.9 580.48L862.9 469.19C862.9 462.01 859.3 458.42 852.11 454.83C708.28 357.89 366.67 131.721 323.51 103L248 153.26C370.26 235.83 697.49 451.24 783.79 512.27C794.58 519.45 794.58 526.63 794.58 530.22L794.58 681L830.54 655.87C866.5 630.74 862.9 612.79 862.9 580.48L862.9 580.48Z" id="形状" fill="#CCD6DD" fill-rule="evenodd" stroke="none" />
      <path d="M851.23 454.95C707.6 357.98 366.49 131.731 323.4 103L248 153.28C370.08 235.88 696.83 451.36 783.01 512.41C783.01 512.41 786.6 516 786.6 516L862 462.13C854.82 458.54 854.82 454.95 851.23 454.95L851.23 454.95Z" id="形状" fill="#E1E8ED" fill-rule="evenodd" stroke="none" />
    </g>
  </g>
</svg>