<?xml version="1.0" encoding="utf-8"?>
<svg width="1333px" height="1363px" viewBox="0 0 1333 1363" version="1.1" xmlns:xlink="http://www.w3.org/1999/xlink" xmlns="http://www.w3.org/2000/svg">
  <defs>
    <path d="M0 0L541 0L541 786L0 786L0 0Z" id="path_1" />
    <path d="M0 0L535 0L535 782L0 782L0 0Z" id="path_2" />
    <clipPath id="clip_1">
      <use xlink:href="#path_1" clip-rule="evenodd" fill-rule="evenodd" />
    </clipPath>
    <clipPath id="clip_2">
      <use xlink:href="#path_2" clip-rule="evenodd" fill-rule="evenodd" />
    </clipPath>
  </defs>
  <g id="off">
    <g id="off">
      <path d="M350 0C156.732 0 0 156.732 0 350C0 543.268 156.732 700 350 700C543.268 700 700 543.268 700 350C700 156.732 543.268 0 350 0L350 0Z" id="3" fill="#D81E06" fill-rule="evenodd" stroke="none" />
      <path d="M350 608.829C206.927 608.829 89.8051 491.707 89.8051 348.549C89.8051 272.317 124.122 203.427 175.683 154.683C188.744 142.39 209.147 142.646 221.866 155.366C235.439 168.939 234.586 191.049 220.159 203.768C180.72 238.598 154.768 290.415 154.768 348.634C154.768 456.024 242.61 543.781 350 543.781C457.39 543.781 545.232 455.939 545.232 348.634C545.232 289.476 518.512 236.89 479.842 200.268C466.781 187.89 466.439 167.317 479.159 154.598C491.366 142.39 511 142.219 523.549 154C575.622 202.829 610.366 272.061 610.366 348.719C610.281 491.707 493.159 608.829 350 608.829L350 608.829Z" id="2" fill="#FFFFFF" fill-rule="evenodd" stroke="none" />
      <path d="M382.439 101.5L381.927 333.524C381.927 351.11 367.585 365.366 350 365.366C332.414 365.366 318.158 351.11 318.073 333.524L317.561 101.5C317.561 83.8293 331.817 69.4878 349.488 69.4878L350.597 69.4878C368.183 69.4878 382.524 83.8293 382.439 101.5L382.439 101.5Z" id="1" fill="#FFFFFF" fill-rule="evenodd" stroke="none" />
    </g>
    <g id="sing-box" transform="translate(300 250)">
      <path d="M0.000244141 336L0.000244141 720.69C0.000244141 785.41 39.4993 796.19 39.4993 796.19L456.03 1076.62C520.66 1119.77 502.71 1026.29 502.71 1026.29L502.71 673.96L0.000244141 336L0.000244141 336Z" id="形状" fill="#37474F" fill-rule="evenodd" stroke="none" />
      <g id="遮罩组" transform="translate(492.00024 327)">
        <path d="M0 0L541 0L541 786L0 786L0 0Z" id="矩形" fill="none" fill-rule="evenodd" stroke="none" />
        <g clip-path="url(#clip_1)">
          <g id="Group">
            <g id="遮罩组">
              <path d="M0 0L535 0L535 782L0 782L0 0Z" id="矩形" fill="none" fill-rule="evenodd" stroke="none" />
              <g clip-path="url(#clip_2)">
                <path d="M520.482 15.4819L520.482 400.176C520.482 464.89 480.983 475.676 480.983 475.676C480.983 475.676 129.086 712.963 64.4524 756.106C-0.181708 799.25 17.7722 705.773 17.7722 705.773L17.7722 353.437L520.482 15.4819L520.482 15.4819Z" id="Group" fill="#455A64" fill-rule="evenodd" stroke="none" />
              </g>
            </g>
          </g>
        </g>
      </g>
      <path d="M1006 336L1006 720.69C1006 785.41 966.5 796.19 966.5 796.19C966.5 796.19 614.6 1033.48 549.97 1076.62C485.34 1119.77 503.29 1026.29 503.29 1026.29L503.29 673.96L1006 336L1006 336Z" id="形状" fill="#455A64" fill-rule="evenodd" stroke="none" />
      <path d="M549.71 13.473C520.96 -4.49103 477.85 -4.49103 452.7 13.473L21.5573 308.07C-7.18573 326.04 -7.18573 358.37 21.5573 376.33L452.7 674.53C481.44 692.49 524.56 692.49 549.71 674.53L984.44 372.74C1013.19 354.78 1013.19 322.44 984.44 304.48L549.71 13.473L549.71 13.473Z" id="形状" fill="#546E7A" fill-rule="evenodd" stroke="none" />
      <path d="M503 1094C481.4 1094 467 1080.19 467 1062.92L467 676.08C467 658.82 481.4 645 503 645C524.6 645 539 658.82 539 676.08L539 1059.46C539 1080.19 524.6 1094 503 1094L503 1094Z" id="形状" fill="#546E7A" fill-rule="evenodd" stroke="none" />
      <path d="M861.92 580.92C861.92 616.89 865.5 631.27 826.03 656.45L736.32 713.99C696.85 739.17 682.5 717.59 682.5 685.22L682.5 591.71C682.5 584.52 682.5 580.92 671.73 573.73C578.43 508.99 219.591 260.84 155 214.09L320.07 99C366.72 127.772 707.61 354.35 847.56 451.45C854.74 455.05 858.33 462.24 858.33 465.84L858.33 580.92L861.92 580.92Z" id="形状" fill="#99AAB5" fill-rule="evenodd" stroke="none" />
      <path d="M851.41 455.21C707.82 358.17 366.79 131.752 323.72 103L259.103 142.534L155 214.41C219.615 261.14 578.59 505.53 671.92 570.22C679.1 573.81 679.1 577.41 679.1 581L855 458.8C855 458.8 855 455.21 851.41 455.21L851.41 455.21Z" id="形状" fill="#CCD6DD" fill-rule="evenodd" stroke="none" />
      <path d="M862.9 580.48L862.9 469.19C862.9 462.01 859.3 458.42 852.11 454.83C708.28 357.89 366.67 131.721 323.51 103L248 153.26C370.26 235.83 697.49 451.24 783.79 512.27C794.58 519.45 794.58 526.63 794.58 530.22L794.58 681L830.54 655.87C866.5 630.74 862.9 612.79 862.9 580.48L862.9 580.48Z" id="形状" fill="#CCD6DD" fill-rule="evenodd" stroke="none" />
      <path d="M851.23 454.95C707.6 357.98 366.49 131.731 323.4 103L248 153.28C370.08 235.88 696.83 451.36 783.01 512.41C783.01 512.41 786.6 516 786.6 516L862 462.13C854.82 458.54 854.82 454.95 851.23 454.95L851.23 454.95Z" id="形状" fill="#E1E8ED" fill-rule="evenodd" stroke="none" />
    </g>
  </g>
</svg>